Patient4_TMGait_0pt5_01_left_21_GRF.mot
version=1
nRows=65
nColumns=19
inDegrees=no
endheader
time	F1x	F1y	F1z	M1x	M1y	M1z	F2x	F2y	F2z	M2x	M2y	M2z	EC1x	EC1y	EC1z	EC2x	EC2y	EC2z
28.08	-17.4669	3.7068	-2.3575	-0.51792	-6.6306	2.0744	-36.1819	741.3576	-56.7627	278.5695	64.3489	730.1044	-0.0592	0.0182	-0.0073	-0.0462	0.0165	0.9585
28.0934	-11.9685	2.7255	-1.5196	-0.45379	-4.6889	1.6529	-34.2349	739.5105	-55.0944	278.2481	62.8762	724.9067	-0.0592	0.0182	-0.0073	-0.0462	0.0165	0.9585
28.1069	-7.313	1.9182	-0.80699	-0.40558	-3.0203	1.3134	-31.6199	738.873	-53.1821	278.468	60.7385	720.0563	-0.0592	0.0182	-0.0073	-0.0462	0.0165	0.9585
28.1203	-3.7666	1.3252	-0.26452	-0.37453	-1.729	1.0645	-28.3799	739.833	-51.1916	279.358	58.0722	716.0052	-0.0592	0.0182	-0.0073	-0.0462	0.0165	0.9585
28.1337	-1.3135	0.94337	0.11247	-0.35905	-0.82261	0.91363	-24.5715	742.4261	-49.2984	280.9172	55.0814	712.8663	-0.0592	0.0182	-0.0073	-0.0462	0.0165	0.9585
28.1471	0.20203	0.73366	0.34041	-0.35344	-0.24794	0.85246	-20.2531	746.3848	-47.6457	283.0362	51.9602	710.4648	-0.0592	0.0182	-0.0073	-0.0462	0.0165	0.9585
28.1606	0.99536	0.63995	0.45735	-0.35045	0.060253	0.84939	-15.4658	751.2822	-46.2929	285.5515	48.8225	708.4669	-0.0592	0.0182	-0.0073	-0.0462	0.0165	0.9585
28.174	1.2655	0.60487	0.49077	-0.34064	0.17811	0.86581	-10.2617	756.659	-45.2405	288.2886	45.7264	706.5161	-0.0592	0.0182	-0.0073	-0.0462	0.0165	0.9585
28.1874	1.1994	0.55528	0.48014	-0.30747	0.16256	0.83747	-4.7419	762.0917	-44.44	291.081	42.6952	704.3168	-0.0592	0.0182	-0.0073	-0.0462	0.0165	0.9585
28.2009	0.94044	0.42029	0.44805	-0.23236	0.066899	0.70638	0.95071	767.1834	-43.8459	293.7627	39.7631	701.6311	-0.0592	0.0182	-0.0073	-0.0462	0.0165	0.9585
28.2143	0.59614	0.12499	0.41645	-0.09302	-0.071679	0.39597	6.615	771.5627	-43.4202	296.1672	36.9792	698.2804	-0.0592	0.0182	-0.0073	-0.0462	0.0165	0.9585
28.2277	0.25305	-0.40444	0.38617	0.1352	-0.21079	-0.169	12.0232	774.8777	-43.141	298.1289	34.4126	694.1293	-0.0592	0.0182	-0.0073	-0.0462	0.0165	0.9585
28.2411	-0.030536	-1.2245	0.35894	0.47198	-0.32153	-1.0415	16.9309	776.836	-42.9777	299.5004	32.1304	689.1191	-0.0592	0.0182	-0.0073	-0.0462	0.0165	0.9585
28.2546	-0.18866	-2.3646	0.33135	0.92393	-0.3736	-2.2576	21.0963	777.1956	-42.8904	300.1544	30.187	683.2303	-0.0592	0.0182	-0.0073	-0.0462	0.0165	0.9585
28.268	-0.17352	-3.7718	0.29617	1.4696	-0.33697	-3.7603	24.3334	775.778	-42.8594	299.9923	28.6294	676.4598	-0.0592	0.0182	-0.0073	-0.0462	0.0165	0.9585
28.2814	0.097987	-5.2836	0.24065	2.0464	-0.16798	-5.3819	26.542	772.5598	-42.8741	298.9817	27.4783	668.8985	-0.0592	0.0182	-0.0073	-0.0462	0.0165	0.9585
28.2949	0.72299	-6.5701	0.14032	2.5298	0.19087	-6.7796	27.7348	767.7025	-42.9612	297.1725	26.7471	660.736	-0.0592	0.0182	-0.0073	-0.0462	0.0165	0.9585
28.3083	1.8032	-7.0837	-0.031225	2.7119	0.79959	-7.3896	28.0649	761.5236	-43.1583	294.6902	26.4118	652.2181	-0.0592	0.0182	-0.0073	-0.0462	0.0165	0.9585
28.3217	3.4263	-6.0132	-0.30449	2.285	1.7157	-6.3743	27.7943	754.462	-43.4978	291.7199	26.4081	643.6257	-0.0592	0.0182	-0.0073	-0.0462	0.0165	0.9585
28.3351	5.6054	-2.2577	-0.70289	0.83499	2.9618	-2.5833	27.2219	746.9679	-43.9974	288.4613	26.6466	635.207	-0.0592	0.0182	-0.0073	-0.0462	0.0165	0.9585
28.3486	8.2453	5.5146	-1.2348	-2.1398	4.5065	5.3768	26.6123	739.3482	-44.676	285.0627	27.0545	627.0742	-0.0592	0.0182	-0.0073	-0.0462	0.0165	0.9585
28.362	11.0366	18.7295	-1.863	-7.1737	6.1942	19.0229	26.1408	731.6288	-45.531	281.5641	27.5734	619.1235	-0.0592	0.0182	-0.0073	-0.0462	0.0165	0.9585
28.3754	13.3855	38.6088	-2.4985	-14.7195	7.7017	39.6697	25.8759	723.4803	-46.514	277.8676	28.1464	610.9925	-0.0592	0.0182	-0.0073	-0.0462	0.0165	0.9585
28.3889	14.3536	65.7174	-2.9718	-24.9781	8.4926	67.9733	25.7952	714.2581	-47.4971	273.7541	28.6836	602.088	-0.0592	0.0182	-0.0073	-0.0462	0.0165	0.9585
28.4023	12.8884	99.5344	-3.0782	-37.7393	7.9593	103.4741	25.8272	703.15	-48.283	268.9394	29.0531	591.6979	-0.0592	0.0182	-0.0073	-0.0462	0.0165	0.9585
28.4157	8.6952	138.4354	-2.5845	-52.37	5.7484	144.5326	25.8963	689.3603	-48.6491	263.1455	29.107	579.146	-0.0592	0.0182	-0.0073	-0.0462	0.0165	0.9585
28.4291	2.6579	179.5632	-1.2385	-67.7609	1.9243	188.1404	25.9416	672.2513	-48.4109	256.1495	28.7237	563.9009	-0.0592	0.0182	-0.0073	-0.0462	0.0165	0.9585
28.4426	-3.9735	218.3978	1.2762	-82.2042	-3.3461	229.3767	25.9377	651.3603	-47.4759	247.7899	27.8443	545.565	-0.0592	0.0182	-0.0073	-0.0462	0.0165	0.9585
28.456	-10.0136	250.9828	4.7393	-94.2445	-9.3519	263.8735	25.8968	626.491	-45.8602	237.9976	26.4816	523.9589	-0.0592	0.0182	-0.0073	-0.0462	0.0165	0.9585
28.4694	-14.9807	276.4292	8.6024	-103.5826	-15.3023	290.5986	25.8801	597.8029	-43.7159	226.8257	24.7347	499.1953	-0.0592	0.0182	-0.0073	-0.0462	0.0165	0.9585
28.4829	-18.8892	296.7072	12.3685	-110.9872	-20.6765	311.5767	25.9737	565.6626	-41.2787	214.399	22.7568	471.5667	-0.0592	0.0182	-0.0073	-0.0462	0.0165	0.9585
28.4963	-21.9795	315.0311	15.7495	-117.6806	-25.2617	330.1689	26.2273	530.4233	-38.7011	200.8424	20.6437	441.3754	-0.0592	0.0182	-0.0073	-0.0462	0.0165	0.9585
28.5097	-24.4328	334.5629	18.5882	-124.8491	-28.9804	349.6252	26.5912	492.323	-36.0021	186.2458	18.4243	408.8481	-0.0592	0.0182	-0.0073	-0.0462	0.0165	0.9585
28.5231	-26.3536	357.6602	21.0101	-133.3496	-32.0176	372.3594	26.8804	451.5071	-33.125	170.6677	16.1162	374.1519	-0.0592	0.0182	-0.0073	-0.0462	0.0165	0.9585
28.5366	-27.7979	385.6276	23.257	-143.6295	-34.6623	399.6893	26.8081	408.1336	-30.0334	154.1672	13.7896	337.4857	-0.0592	0.0182	-0.0073	-0.0462	0.0165	0.9585
28.55	-28.7997	418.7388	25.7808	-155.7379	-37.3963	431.8714	26.055	362.5071	-26.7521	136.8531	11.5725	299.1658	-0.0592	0.0182	-0.0073	-0.0462	0.0165	0.9585
28.5634	-29.4035	456.4559	28.9909	-169.4279	-40.6499	468.3159	24.3404	315.2364	-23.3616	118.9452	9.6224	259.731	-0.0592	0.0182	-0.0073	-0.0462	0.0165	0.9585
28.5769	-29.6602	497.728	33.1825	-184.2836	-44.7312	507.8948	21.5298	267.3446	-19.9773	100.8205	8.0757	220.0245	-0.0592	0.0182	-0.0073	-0.0462	0.0165	0.9585
28.5903	-29.6156	541.3382	38.3136	-199.8612	-49.6068	549.3172	17.7103	220.2884	-16.7277	83.0214	6.999	181.2164	-0.0592	0.0182	-0.0073	-0.0462	0.0165	0.9585
28.6037	-29.2524	586.0597	44.0781	-215.7448	-54.959	591.2864	13.2148	175.7722	-13.7271	66.1873	6.3562	144.6487	-0.0592	0.0182	-0.0073	-0.0462	0.0165	0.9585
28.6171	-28.5166	630.5484	49.9486	-231.4971	-60.2404	632.4159	8.5583	135.4006	-11.0358	50.9256	5.9938	111.5639	-0.0592	0.0182	-0.0073	-0.0462	0.0165	0.9585
28.6306	-27.3445	673.185	55.4112	-246.5793	-64.9158	671.0988	4.279	100.3312	-8.6799	37.6763	5.7277	82.8449	-0.0592	0.0182	-0.0073	-0.0462	0.0165	0.9585
28.644	-25.6829	712.0897	60.0807	-260.3446	-68.587	705.5165	0.76516	71.1148	-6.6496	26.6509	5.4087	58.8974	-0.0592	0.0182	-0.0073	-0.0462	0.0165	0.9585
28.6574	-23.508	745.3824	63.7722	-272.129	-71.0646	733.9105	-1.7824	47.7243	-4.9221	17.8419	4.9497	39.6874	-0.0592	0.0182	-0.0073	-0.0462	0.0165	0.9585
28.6709	-20.8051	771.5446	66.4057	-281.3844	-72.2733	754.9189	-3.3056	29.7265	-3.4703	11.0841	4.3157	24.8754	-0.0592	0.0182	-0.0073	-0.0462	0.0165	0.9585
28.6843	-17.5922	789.6787	67.9991	-287.7773	-72.2475	767.825	-3.8518	16.4876	-2.2807	6.1324	3.5252	13.9601	-0.0592	0.0182	-0.0073	-0.0462	0.0165	0.9585
28.6977	-13.9138	799.6084	68.6368	-291.2289	-71.0934	772.6272	-3.5796	7.3115	-1.3515	2.7164	2.6434	6.3775	-0.0592	0.0182	-0.0073	-0.0462	0.0165	0.9585
28.7111	-9.8564	801.8836	68.4765	-291.9188	-68.9989	770.0207	-2.8194	1.5164	-0.68007	0.57061	1.793	1.5734	-0.0592	0.0182	-0.0073	-0.0462	0.0165	0.9585
28.7246	-5.5489	797.7037	67.7045	-290.258	-66.1954	761.3124	-1.9027	-1.6372	-0.24461	-0.58976	1.08	-1.0458	-0.0592	0.0182	-0.0073	-0.0462	0.0165	0.9585
28.738	-1.1584	788.7568	66.5003	-286.8313	-62.9244	748.2423	-1.0298	-2.9171	0.0085577	-1.056	0.53369	-2.1007	-0.0592	0.0182	-0.0073	-0.0462	0.0165	0.9585
28.7514	3.0969	777.0309	65.0386	-282.3312	-59.4485	732.8023	-0.30158	-3.0019	0.13177	-1.0828	0.1476	-2.1519	-0.0592	0.0182	-0.0073	-0.0462	0.0165	0.9585
28.7649	6.9876	764.5197	63.5042	-277.4606	-56.0411	716.9483	0.24447	-2.4177	0.17768	-0.86685	-0.10881	-1.6357	-0.0592	0.0182	-0.0073	-0.0462	0.0165	0.9585
28.7783	10.3117	752.9745	62.0805	-272.8443	-52.9567	702.3652	0.61804	-1.5459	0.1735	-0.54838	-0.25988	-0.87938	-0.0592	0.0182	-0.0073	-0.0462	0.0165	0.9585
28.7917	12.9372	743.7414	60.9124	-268.9693	-50.3806	690.3032	0.83597	-0.62632	0.14627	-0.2138	-0.33425	-0.083493	-0.0592	0.0182	-0.0073	-0.0462	0.0165	0.9585
28.8051	14.8265	737.6837	60.0912	-266.1591	-48.4085	681.4994	0.93436	0.19941	0.10392	0.087344	-0.35172	0.63457	-0.0592	0.0182	-0.0073	-0.0462	0.0165	0.9585
28.8186	16.0163	735.1306	59.6435	-264.5551	-47.0495	676.1676	0.94798	0.86655	0.05548	0.33231	-0.33399	1.2145	-0.0592	0.0182	-0.0073	-0.0462	0.0165	0.9585
28.832	16.6425	735.8829	59.5471	-264.1146	-46.234	674.0023	0.9082	1.3451	0.00041035	0.51005	-0.28915	1.6282	-0.0592	0.0182	-0.0073	-0.0462	0.0165	0.9585
28.8454	16.8988	739.3118	59.7333	-264.6403	-45.8275	674.3017	0.83848	1.6235	-0.057149	0.61493	-0.22612	1.8623	-0.0592	0.0182	-0.0073	-0.0462	0.0165	0.9585
28.8589	17.0172	744.4875	60.1189	-265.8267	-45.6679	676.0939	0.75127	1.6932	-0.12231	0.64067	-0.14298	1.8982	-0.0592	0.0182	-0.0073	-0.0462	0.0165	0.9585
28.8723	17.2348	750.3856	60.6173	-267.3281	-45.5886	678.3508	0.65974	1.5258	-0.19554	0.57497	-0.041957	1.6953	-0.0592	0.0182	-0.0073	-0.0462	0.0165	0.9585
28.8857	17.7495	756.0718	61.149	-268.8221	-45.4486	680.181	0.56808	1.0843	-0.27993	0.40203	0.077539	1.2133	-0.0592	0.0182	-0.0073	-0.0462	0.0165	0.9585
28.8991	18.7376	760.8019	61.6568	-270.0431	-45.1429	680.8953	0.47845	0.32298	-0.36731	0.10277	0.20401	0.39517	-0.0592	0.0182	-0.0073	-0.0462	0.0165	0.9585
28.9126	20.3122	764.1013	62.0966	-270.8113	-44.5995	680.0801	0.39184	-0.78526	-0.44892	-0.33542	0.3237	-0.7993	-0.0592	0.0182	-0.0073	-0.0462	0.0165	0.9585
28.926	22.5311	765.7792	62.446	-271.0418	-43.781	677.5937	0.31548	-2.2288	-0.50298	-0.9095	0.4082	-2.3665	-0.0592	0.0182	-0.0073	-0.0462	0.0165	0.9585
28.9394	25.3879	765.9229	62.6924	-270.7463	-42.6766	673.5608	0.25513	-3.9093	-0.50456	-1.5803	0.4239	-4.2051	-0.0592	0.0182	-0.0073	-0.0462	0.0165	0.9585
